<svg width="62" height="60" viewBox="0 0 62 60" fill="current" xmlns="http://www.w3.org/2000/svg">
<path d="M30.7577 0.00192233C13.766 0.00192233 0 13.7794 0 30.7596C0 44.3564 8.81207 55.8809 21.0248 59.9467C22.5684 60.237 23.1259 59.2854 23.1259 58.4626C23.1259 57.7321 23.1086 55.8002 23.0971 53.2357C14.5368 55.0889 12.7337 49.1008 12.7337 49.1008C11.3323 45.5559 9.30996 44.6044 9.30996 44.6044C6.52639 42.7032 9.53103 42.7435 9.53103 42.7435C12.6145 42.9531 14.237 45.9058 14.237 45.9058C16.9802 50.6117 21.4342 49.2507 23.197 48.4587C23.4662 46.4767 24.2678 45.1138 25.1405 44.3545C18.3123 43.5836 11.1324 40.9404 11.1324 29.1544C11.1324 25.7884 12.3242 23.0471 14.2946 20.8941C13.9544 20.1232 12.9125 16.9898 14.5657 12.7529C14.5657 12.7529 17.1397 11.932 23.024 15.9075C25.4866 15.225 28.101 14.8848 30.7134 14.8675C33.3278 14.8848 35.9403 15.227 38.4029 15.9075C44.2526 11.932 46.8247 12.7529 46.8247 12.7529C48.476 16.9898 47.4341 20.1213 47.1342 20.8941C49.0854 23.0471 50.2772 25.7903 50.2772 29.1544C50.2772 40.9673 43.0876 43.5721 36.2517 44.3237C37.3206 45.2445 38.3221 47.138 38.3221 50.012C38.3221 54.1258 38.2837 57.4399 38.2837 58.4415C38.2837 59.2412 38.8219 60.2024 40.406 59.8929C52.709 55.8694 61.5115 44.3352 61.5115 30.7577C61.5115 13.7775 47.7455 0 30.7538 0L30.7577 0.00192233Z" fill="current"/>
</svg>
