<svg width="60" height="60" viewBox="0 0 60 60" fill="current" xmlns="http://www.w3.org/2000/svg">
<path d="M0 7.56757V52.4324C0 56.6667 3.33333 60 7.56757 60H52.4324C54.5045 60 56.4865 59.009 57.7477 57.7477C59.0991 56.3964 60 54.6847 60 52.4324V7.56757C60 3.33333 56.6667 0 52.4324 0H7.56757C5.31532 0 3.6036 0.900901 2.25225 2.25225C0.990991 3.51351 0 5.4955 0 7.56757ZM8.10811 13.5135C8.10811 10.6306 10.4505 8.10811 13.3333 8.10811C16.3063 8.10811 18.7387 10.6306 18.7387 13.5135C18.7387 16.4865 16.3063 18.8288 13.3333 18.8288C10.4505 18.8288 8.10811 16.4865 8.10811 13.5135ZM22.6126 50.5405V23.0631C22.6126 22.4324 23.2432 21.8919 23.6937 21.8919H31.3514C32.4324 21.8919 32.4324 23.1532 32.4324 23.964C34.5946 21.8018 37.3874 21.2613 40.2703 21.2613C47.2973 21.2613 51.8018 24.5946 51.8018 31.982V50.5405C51.8018 51.1712 51.2613 51.7117 50.7207 51.7117H42.7928C42.1622 51.7117 41.7117 51.0811 41.7117 50.5405V33.7838C41.7117 30.991 40.9009 29.4595 37.7477 29.4595C33.7838 29.4595 32.7928 32.0721 32.7928 35.5856V50.5405C32.7928 51.1712 32.1622 51.7117 31.5315 51.7117H23.6937C23.2432 51.7117 22.6126 51.0811 22.6126 50.5405ZM8.28829 50.5405V23.0631C8.28829 22.4324 8.91892 21.8919 9.36937 21.8919H17.2072C17.9279 21.8919 18.3784 22.3423 18.3784 23.0631V50.5405C18.3784 51.1712 17.8378 51.7117 17.2072 51.7117H9.36937C8.82883 51.7117 8.28829 51.0811 8.28829 50.5405Z" fill="current"/>
</svg>
