<svg xmlns="http://www.w3.org/2000/svg" xmlns:xlink="http://www.w3.org/1999/xlink" width="1080" zoomAndPan="magnify" viewBox="0 0 810 809.999993" height="1080" preserveAspectRatio="xMidYMid meet" version="1.0"><defs><g/></defs><g fill="current" fill-opacity="1"><g transform="translate(58.401267, 580.623338)"><g><path d="M 40.21875 -236.582031 C 56.304688 -182.640625 64.351562 -157.089844 75.707031 -112.613281 C 88.007812 -64.824219 101.730469 0 140.53125 0 L 244.152344 0 C 257.402344 0 271.125 0.472656 281.058594 -28.390625 C 315.128906 -126.808594 355.820312 -231.851562 355.820312 -277.746094 C 355.820312 -308.503906 341.625 -338.3125 304.246094 -338.3125 C 255.035156 -338.3125 194.46875 -303.769531 194.46875 -273.960938 C 194.46875 -249.832031 280.113281 -259.765625 280.113281 -139.109375 C 280.113281 -86.117188 262.605469 -31.230469 246.046875 -31.230469 C 222.859375 -31.230469 194.46875 -154.726562 172.703125 -236.582031 C 163.242188 -272.542969 154.25 -304.71875 165.609375 -331.214844 L 0 -331.214844 C 19.871094 -313.707031 28.863281 -274.910156 40.21875 -236.582031 Z M 40.21875 -236.582031 "/></g></g></g><g fill="current" fill-opacity="1"><g transform="translate(426.049268, 580.623338)"><g><path d="M 11.828125 -156.617188 C 11.828125 -63.402344 94.160156 7.097656 185.007812 7.097656 C 275.855469 7.097656 316.074219 -57.253906 316.074219 -93.214844 C 316.074219 -101.257812 311.816406 -103.148438 308.503906 -103.148438 C 299.039062 -103.148438 291.941406 -78.546875 246.992188 -78.546875 C 177.4375 -78.546875 62.929688 -159.457031 62.929688 -236.582031 C 62.929688 -264.972656 77.597656 -285.792969 105.042969 -285.792969 C 135.796875 -285.792969 166.082031 -261.660156 185.480469 -234.214844 C 201.566406 -211.503906 196.363281 -194.46875 207.71875 -194.46875 C 214.816406 -194.46875 240.367188 -219.074219 260.242188 -236.582031 C 277.273438 -251.722656 299.039062 -268.285156 299.039062 -280.585938 C 299.039062 -303.296875 237.054688 -338.3125 185.953125 -338.3125 C 67.664062 -338.3125 11.828125 -255.035156 11.828125 -156.617188 Z M 11.828125 -156.617188 "/></g></g></g></svg>